<svg width="20" height="20" viewBox="0 0 20 20" fill="none" xmlns="http://www.w3.org/2000/svg">
<g id="chat-3-line">
<path id="Vector" d="M6.07593 17.3535L1.66663 18.3334L2.64647 13.924C2.02116 12.7547 1.66663 11.4188 1.66663 10C1.66663 5.39765 5.39758 1.66669 9.99996 1.66669C14.6023 1.66669 18.3333 5.39765 18.3333 10C18.3333 14.6024 14.6023 18.3334 9.99996 18.3334C8.58121 18.3334 7.24529 17.9789 6.07593 17.3535ZM6.31725 15.5925L6.86186 15.8838C7.81869 16.3954 8.88788 16.6667 9.99996 16.6667C13.6819 16.6667 16.6666 13.6819 16.6666 10C16.6666 6.31812 13.6819 3.33335 9.99996 3.33335C6.31806 3.33335 3.33329 6.31812 3.33329 10C3.33329 11.1121 3.60453 12.1813 4.1162 13.1381L4.40743 13.6827L3.86176 16.1382L6.31725 15.5925Z" fill="#3B3B3B"/>
</g>
</svg>
