<svg width="20" height="20" viewBox="0 0 20 20" fill="none" xmlns="http://www.w3.org/2000/svg">
<g id="edit-2-fill">
<path d="M0 10C0 4.47715 4.47715 0 10 0C15.5228 0 20 4.47715 20 10C20 15.5228 15.5228 20 10 20C4.47715 20 0 15.5228 0 10Z" fill="#3B3B3B"/>
<path id="Vector" d="M8.16176 14.647H16V15.9803H4V13.1519L10.5997 6.55229L13.4281 9.38068L8.16176 14.647ZM11.5425 5.60947L12.9567 4.19526C13.2171 3.93491 13.6391 3.93491 13.8995 4.19526L15.7851 6.08088C16.0455 6.34123 16.0455 6.76334 15.7851 7.02369L14.3709 8.4379L11.5425 5.60947Z" fill="#FCFCFC"/>
</g>
</svg>
