<svg width="20" height="20" viewBox="0 0 20 20" fill="none" xmlns="http://www.w3.org/2000/svg">
<g id="image-edit-fill">
<path id="Vector" d="M16.6667 2.5C17.1269 2.5 17.5 2.8731 17.5 3.33333V4.7975L15.8333 6.46417V4.16667H4.16667V10.9167L7.5 7.58375L11.1067 11.1908L10.001 12.2968L9.99583 15.8292L13.5345 15.8343L14.6425 14.7258L15.7496 15.8333H15.8333V13.535L17.5 11.8683V16.6667C17.5 17.1269 17.1269 17.5 16.6667 17.5H3.33333C2.8731 17.5 2.5 17.1269 2.5 16.6667V3.33333C2.5 2.8731 2.8731 2.5 3.33333 2.5H16.6667ZM18.1485 6.50634L19.327 7.68486L12.8452 14.1667L11.6649 14.1649L11.6667 12.9882L18.1485 6.50634ZM12.9167 5.83333C13.607 5.83333 14.1667 6.39297 14.1667 7.08333C14.1667 7.77369 13.607 8.33333 12.9167 8.33333C12.2263 8.33333 11.6667 7.77369 11.6667 7.08333C11.6667 6.39297 12.2263 5.83333 12.9167 5.83333Z" fill="#FCFCFC"/>
</g>
</svg>
