<svg width="48" height="48" viewBox="0 0 48 48" fill="none" xmlns="http://www.w3.org/2000/svg">
<g id="image-add-fill">
<path id="Vector" d="M42 30V36H48V40H42V46H38V40H32V36H38V30H42ZM42.0164 6C43.112 6 44 6.8899 44 7.9868L44.0014 26.6834C42.7498 26.2408 41.403 26 40 26V10H8L8.002 38L26.5858 19.4143C27.3056 18.6921 28.44 18.6365 29.2246 19.2464L29.413 19.4154L36.5042 26.5172C31.582 28.0138 28 32.5886 28 38C28 39.403 28.2408 40.7498 28.6834 42.0014L5.9836 42C4.8881 42 4 41.1102 4 40.0132V7.9868C4 6.88952 4.91062 6 5.9836 6H42.0164ZM16 14C18.2091 14 20 15.7909 20 18C20 20.2092 18.2091 22 16 22C13.7909 22 12 20.2092 12 18C12 15.7909 13.7909 14 16 14Z" fill="#3B3B3B"/>
</g>
</svg>
