<svg width="20" height="20" viewBox="0 0 20 20" fill="none" xmlns="http://www.w3.org/2000/svg">
<g id="heart-3-line">
<path id="Vector" d="M13.75 2.5C16.2813 2.5 18.3333 4.58333 18.3333 7.5C18.3333 13.3333 12.0833 16.6667 9.99996 17.9167C7.91663 16.6667 1.66663 13.3333 1.66663 7.5C1.66663 4.58333 3.74996 2.5 6.24996 2.5C7.79993 2.5 9.16663 3.33333 9.99996 4.16667C10.8333 3.33333 12.2 2.5 13.75 2.5ZM10.7782 15.5032C11.5129 15.0404 12.175 14.5796 12.7957 14.0858C15.278 12.1108 16.6666 9.95292 16.6666 7.5C16.6666 5.53397 15.3858 4.16667 13.75 4.16667C12.8534 4.16667 11.8827 4.64092 11.1785 5.34517L9.99996 6.52369L8.82146 5.34517C8.11719 4.64092 7.14654 4.16667 6.24996 4.16667C4.63251 4.16667 3.33329 5.54708 3.33329 7.5C3.33329 9.95292 4.72185 12.1108 7.20424 14.0858C7.82496 14.5796 8.48704 15.0404 9.22171 15.5032C9.47046 15.6599 9.71754 15.8107 9.99996 15.9793C10.2824 15.8107 10.5295 15.6599 10.7782 15.5032Z" fill="#8E4EC6"/>
</g>
</svg>
