<svg width="20" height="20" viewBox="0 0 20 20" fill="none" xmlns="http://www.w3.org/2000/svg">
<g id="question-line">
<path id="Vector" d="M9.99996 18.3333C5.39758 18.3333 1.66663 14.6023 1.66663 9.99999C1.66663 5.39761 5.39758 1.66666 9.99996 1.66666C14.6023 1.66666 18.3333 5.39761 18.3333 9.99999C18.3333 14.6023 14.6023 18.3333 9.99996 18.3333ZM9.99996 16.6667C13.6819 16.6667 16.6666 13.6819 16.6666 9.99999C16.6666 6.31809 13.6819 3.33332 9.99996 3.33332C6.31806 3.33332 3.33329 6.31809 3.33329 9.99999C3.33329 13.6819 6.31806 16.6667 9.99996 16.6667ZM9.16663 12.5H10.8333V14.1667H9.16663V12.5ZM10.8333 11.1292V11.6667H9.16663V10.4167C9.16663 9.95641 9.53971 9.58332 9.99996 9.58332C10.6903 9.58332 11.25 9.02366 11.25 8.33332C11.25 7.64297 10.6903 7.08332 9.99996 7.08332C9.39354 7.08332 8.88796 7.51518 8.77396 8.08813L7.13938 7.76121C7.40527 6.42432 8.58496 5.41666 9.99996 5.41666C11.6108 5.41666 12.9166 6.72249 12.9166 8.33332C12.9166 9.65457 12.038 10.7707 10.8333 11.1292Z" fill="#8E4EC6"/>
</g>
</svg>
