<svg width="20" height="20" viewBox="0 0 20 20" fill="none" xmlns="http://www.w3.org/2000/svg">
<g id="search-line">
<path id="Vector" d="M15.0258 13.8473L18.5947 17.4162L17.4162 18.5947L13.8473 15.0258C12.564 16.0525 10.9366 16.6667 9.16663 16.6667C5.02663 16.6667 1.66663 13.3067 1.66663 9.16666C1.66663 5.02666 5.02663 1.66666 9.16663 1.66666C13.3066 1.66666 16.6666 5.02666 16.6666 9.16666C16.6666 10.9367 16.0525 12.5641 15.0258 13.8473ZM13.3539 13.229C14.3729 12.1788 15 10.7463 15 9.16666C15 5.94374 12.3895 3.33332 9.16663 3.33332C5.94371 3.33332 3.33329 5.94374 3.33329 9.16666C3.33329 12.3896 5.94371 15 9.16663 15C10.7463 15 12.1788 14.3729 13.229 13.3539L13.3539 13.229Z" fill="#3B3B3B"/>
</g>
</svg>
